88      a8P          db         88888888ba   88  888b      88         db         
88    ,88'          d88b        88      "8b  ""  8888b     88        d88b        
88  ,88"           d8'`8b       88      ,8P      88 `8b    88       d8'`8b       
88,d88'           d8'  `8b      88aaaaaa8P'  88  88  `8b   88      d8'  `8b      
8888"88,         d8YaaaaY8b     88""""88'    88  88   `8b  88     d8YaaaaY8b     
88P   Y8b       d8""""""""8b    88    `8b    88  88    `8b 88    d8""""""""8b    
88     "88,    d8'        `8b   88     `8b   88  88     `8888   d8'        `8b   
88       Y8b  d8'          `8b  88      `8b  88  88      `888  d8'          `8b  
-------------------------------------------------------------------------------
                    -------------------------------------
             [ Repulsion.1965.CRITERION.DVDRip.XviD-KARiNA.avi ]            
                    -------------------------------------

[Synopsis]==================================                                                                

             Repulsion | UK | 1965 | Directed by Roman Polanski
                                  
Roman Polanski followed up his international breakthrough Knife in the Water with this controversial, chilling tale of psychosis. Catherine Deneuve is Carol, a fragile, frigid young beauty cracking up in her London flat when left alone by her vacationing sister. She is soon haunted by specters real and imagined, and her insanity grows to a violent, hysterical pitch. Thanks to its disturbing detail and Polanski’s adeptness at turning claustrophobic space into an emotional minefield, Repulsion is a surreal, mind-bending odyssey into personal horror, and it remains one of cinema’s most shocking psychological thrillers.

[ IMdB: http://www.imdb.com/title/tt0059646/ | Rating: 7.9 / 10 (10,179 votes) ]
                                     
[General]===================================                                                                 

Complete name                    : Repulsion.1965.CRITERION.DVDRip.XviD-KARiNA.avi
Format                           : AVI
File size                        : 1.37 GiB
Duration                         : 1h 45mn
Overall bit rate                 : 1 860 Kbps
Source                           : Criterion NTSC DVD9

[Video]=====================================
                                 
Format                           : MPEG-4 Visual
Codec ID                         : XVID
Bit rate                         : 1 742 Kbps
Width                            : 720 pixels
Height                           : 432 pixels
Display aspect ratio             : 1.667
Frame rate                       : 23.976 fps
Resolution                       : 24 bits
Colorimetry                      : 4:2:0
Scan type                        : Progressive
Bits/(Pixel*Frame)               : 0.234
Stream size                      : 1.28 GiB (94%)
Writing library                  : XviD 1.2.1 (UTC 2008-12-04)

[Audio]=====================================                              

Format                           : MPEG Audio
Format version                   : Version 1
Format profile                   : Layer 3
Bit rate mode                    : Variable
Bit rate                         : 105 Kbps
Nominal bit rate                 : 160 Kbps
Channel(s)                       : 2 channels
Sampling rate                    : 48.0 KHz
Resolution                       : 16 bits
Stream size                      : 79.3 MiB (6%)
Alignment                        : Aligned on interleaves
Writing library                  : LAME3.98r
Language                         : English

[KARiNA]===================================